# xmcd
#
# Track frame offsets:
#	150
#	18005
#	33393
#	49857
#	64918
#	76385
#	93519
#	109820
#	122142
#	135669
#	150115
#	165061
#	182483
#	194765
#	204058
#	217256
#
# Disc length: 3114 seconds
#
# Revision: 2
# Processed by: cddbd v1.5.1PL0 Copyright (c) Steve Scherf et al.
# Submitted via: audiograbber 1.82.02
#
DISCID=cd0c2810
DTITLE=Larry Sparks - 40
DYEAR=2005
DGENRE=Bluegrass
TTITLE0=Georgia Peaches
TTITLE1=City Folks Call Us Poor
TTITLE2=John Deere Tractor
TTITLE3=Blues Stay Away From Me
TTITLE4=1-800-DO-U-CARE
TTITLE5=Where the Sweet Water Flows
TTITLE6=Tennessee 1949
TTITLE7=I Need Jesus
TTITLE8=Sharecropper's Son
TTITLE9=Love Please Stay
TTITLE10=Listening to the Wind
TTITLE11=I Want You to Meet My Friend
TTITLE12=Carter's Blues (Guitar Salute)
TTITLE13=It's Too Late to Walk the Floor
TTITLE14=Brand New Broken Heart
TTITLE15=New Highway
EXTD=
EXTT0=
EXTT1=
EXTT2=
EXTT3=
EXTT4=
EXTT5=
EXTT6=
EXTT7=
EXTT8=
EXTT9=
EXTT10=
EXTT11=
EXTT12=
EXTT13=
EXTT14=
EXTT15=
PLAYORDER=
